# Blender v3.0.1 OBJ File: ''
# www.blender.org
o Cube
v 1.000000 1.000000 -1.000000
v 0.000000 1.000000 -1.000000
v 0.000000 1.000000 0.000000
v 0.500000 5.442395 0.500000
v 0.500000 5.442395 0.500000
v 0.500000 5.442395 0.500000
v 0.500000 5.442395 0.500000
v 1.000000 1.000000 0.000000
v -1.000000 5.104413 1.000000
v 0.000000 5.104413 1.000000
v -1.000000 5.104413 0.000000
v 0.000000 5.104413 0.000000
v 1.000000 6.555444 1.000000
v 0.000000 6.555444 1.000000
v 0.000000 6.555444 0.000000
v 1.000000 6.555444 0.000000
v 0.000000 1.000000 0.000000
v 1.000000 1.000000 0.000000
v 0.000000 1.000000 1.000000
v -1.000000 1.000000 0.000000
v 0.000000 1.000000 -1.000000
v -1.000000 1.000000 1.000000
v -1.000000 -1.000000 1.000000
v -1.000000 1.000000 -1.000000
v -1.000000 -1.000000 -1.000000
v 1.000000 1.000000 1.000000
v 1.000000 -1.000000 1.000000
v 1.000000 1.000000 -1.000000
v 1.000000 -1.000000 -1.000000
v 0.000000 4.104073 -1.000000
v 1.000000 4.104073 -1.000000
v 1.000000 4.104073 0.000000
v 0.000000 4.104073 0.000000
v 0.000000 2.960380 0.000000
v -1.000000 2.960380 0.000000
v 0.000000 2.960380 -1.000000
v -1.000000 2.960380 -1.000000
v 0.500000 7.055444 0.500000
v 0.500000 7.055444 0.500000
v 0.500000 7.055444 0.500000
v 0.500000 7.055444 0.500000
v -0.500000 5.604413 0.500000
v -0.500000 5.604413 0.500000
v -0.500000 5.604413 0.500000
v -0.500000 5.604413 0.500000
v 0.500000 4.604073 -0.500000
v 0.500000 4.604073 -0.500000
v 0.500000 4.604073 -0.500000
v 0.500000 4.604073 -0.500000
v -0.500000 3.460380 -0.500000
v -0.500000 3.460380 -0.500000
v -0.500000 3.460380 -0.500000
v -0.500000 3.460380 -0.500000
vt 0.536590 0.827901
vt 0.635732 0.520159
vt 0.635732 0.827901
vt 0.493546 0.195479
vt 0.859634 0.284673
vt 0.493546 0.284673
vt 0.493546 0.285638
vt 0.859634 0.374832
vt 0.493546 0.374832
vt 0.859634 0.194513
vt 0.493546 0.105320
vt 0.859634 0.105320
vt 0.972839 0.048692
vt 0.891652 0.018913
vt 0.893137 0.018939
vt 0.009340 0.016131
vt 0.477006 0.100312
vt 0.009340 0.100312
vt 0.009340 0.101224
vt 0.477006 0.185405
vt 0.009340 0.185405
vt 0.009340 0.186317
vt 0.477006 0.270498
vt 0.009340 0.270498
vt 0.340119 0.382317
vt 0.390450 0.452638
vt 0.389237 0.451781
vt 0.009340 0.271410
vt 0.477006 0.355591
vt 0.009340 0.355591
vt 0.859634 0.104354
vt 0.493546 0.015161
vt 0.859634 0.015161
vt 0.210267 0.980199
vt 0.309408 0.785845
vt 0.309408 0.980199
vt 0.998984 0.705868
vt 0.856369 0.848483
vt 0.856369 0.705868
vt 0.710983 0.920870
vt 0.710983 0.849563
vt 0.853598 0.849563
vt 0.856323 0.920061
vt 0.856323 0.848754
vt 0.998938 0.848754
vt 0.422664 0.921556
vt 0.422664 0.850248
vt 0.565280 0.850248
vt 0.566667 0.920941
vt 0.566667 0.849633
vt 0.709282 0.849633
vt 0.474682 0.416098
vt 0.444903 0.497285
vt 0.444929 0.495800
vt 0.437235 0.829056
vt 0.536377 0.521314
vt 0.536377 0.829056
vt 0.738174 0.828411
vt 0.837315 0.520669
vt 0.837315 0.828411
vt 0.737101 0.520669
vt 0.637959 0.828411
vt 0.637959 0.520669
vt 0.099532 0.765028
vt 0.049201 0.694708
vt 0.050414 0.695565
vt 0.108979 0.785845
vt 0.009838 0.980199
vt 0.009838 0.785845
vt 0.209194 0.785845
vt 0.110052 0.980199
vt 0.110052 0.785845
vt 0.316446 0.978355
vt 0.415588 0.784001
vt 0.415588 0.978355
vt 0.222953 0.380185
vt 0.273284 0.450506
vt 0.272071 0.449649
vt -0.004503 0.384205
vt 0.045827 0.454525
vt 0.044615 0.453669
vt 0.105297 0.384373
vt 0.155628 0.454694
vt 0.154415 0.453837
vt 0.994983 0.382402
vt 0.913796 0.352623
vt 0.915280 0.352648
vt 0.893991 0.222627
vt 0.964312 0.172296
vt 0.963455 0.173509
vt 0.891728 0.343400
vt 0.962048 0.293069
vt 0.961191 0.294281
vt 0.585707 0.418873
vt 0.555928 0.500060
vt 0.555954 0.498575
vt 0.685970 0.416257
vt 0.656191 0.497444
vt 0.656216 0.495960
vt 0.779743 0.414381
vt 0.749964 0.495568
vt 0.749989 0.494084
vt 0.289752 0.767531
vt 0.239422 0.697211
vt 0.240634 0.698067
vt 0.138023 0.679667
vt 0.108244 0.760854
vt 0.108269 0.759369
vt 0.348696 0.685136
vt 0.318917 0.766323
vt 0.318943 0.764839
vt 0.536590 0.520159
vt 0.859634 0.195479
vt 0.859634 0.285638
vt 0.493546 0.194514
vt 0.891652 0.104001
vt 0.477006 0.016131
vt 0.477006 0.101224
vt 0.477006 0.186317
vt 0.438355 0.382317
vt 0.477006 0.271410
vt 0.493546 0.104354
vt 0.210267 0.785845
vt 0.998984 0.848483
vt 0.853598 0.992178
vt 0.710983 0.992178
vt 0.998938 0.991369
vt 0.856323 0.991369
vt 0.565280 0.992863
vt 0.422664 0.992863
vt 0.709282 0.992248
vt 0.566667 0.992248
vt 0.529991 0.497285
vt 0.437235 0.521314
vt 0.738174 0.520669
vt 0.737101 0.828411
vt 0.001296 0.765028
vt 0.108979 0.980199
vt 0.209194 0.980199
vt 0.316446 0.784001
vt 0.321189 0.380185
vt 0.093733 0.384205
vt 0.203533 0.384373
vt 0.913796 0.437710
vt 0.893991 0.124391
vt 0.891728 0.245163
vt 0.641016 0.500060
vt 0.741279 0.497444
vt 0.835051 0.495568
vt 0.191516 0.767531
vt 0.193332 0.760854
vt 0.404005 0.766323
vn -1.0000 0.0000 0.0000
vn 0.0000 0.0000 1.0000
vn 1.0000 0.0000 0.0000
vn 0.0000 0.0000 -1.0000
vn 0.0000 -1.0000 0.0000
vn 0.0000 0.7071 -0.7071
vn -0.7071 0.7071 0.0000
vn 0.7071 0.7071 0.0000
vn 0.0000 0.7071 0.7071
s off
f 3/1/1 30/2/1 2/3/1
f 19/4/2 9/5/2 22/6/2
f 17/7/3 10/8/3 19/9/3
f 22/10/1 11/11/1 20/12/1
f 12/13/2 44/14/2 45/15/2
f 26/16/2 14/17/2 19/18/2
f 17/19/4 16/20/4 18/21/4
f 19/22/1 15/23/1 17/24/1
f 15/25/2 40/26/2 41/27/2
f 18/28/3 13/29/3 26/30/3
f 20/31/4 12/32/4 17/33/4
f 20/34/1 37/35/1 24/36/1
f 23/37/5 29/38/5 27/39/5
f 21/40/4 28/41/4 29/42/4
f 20/43/1 24/44/1 25/45/1
f 19/46/2 22/47/2 23/48/2
f 18/49/3 26/50/3 27/51/3
f 30/52/2 49/53/2 46/54/2
f 2/55/4 31/56/4 1/57/4
f 8/58/2 33/59/2 3/60/2
f 1/61/3 32/62/3 8/63/3
f 37/64/2 51/65/2 53/66/2
f 24/67/4 36/68/4 21/69/4
f 21/70/3 34/71/3 17/72/3
f 17/73/2 35/74/2 20/75/2
f 13/76/2 38/77/2 39/78/2
f 16/79/2 41/80/2 38/81/2
f 14/82/2 39/83/2 40/84/2
f 11/85/2 43/86/2 44/87/2
f 10/88/2 45/89/2 42/90/2
f 9/91/2 42/92/2 43/93/2
f 31/94/2 46/95/2 47/96/2
f 33/97/2 48/98/2 49/99/2
f 32/100/2 47/101/2 48/102/2
f 34/103/2 52/104/2 50/105/2
f 36/106/2 53/107/2 52/108/2
f 35/109/2 50/110/2 51/111/2
f 3/1/1 33/112/1 30/2/1
f 19/4/2 10/113/2 9/5/2
f 17/7/3 12/114/3 10/8/3
f 22/10/1 9/115/1 11/11/1
f 12/13/6 11/116/6 44/14/6
f 26/16/2 13/117/2 14/17/2
f 17/19/4 15/118/4 16/20/4
f 19/22/1 14/119/1 15/23/1
f 15/25/7 14/120/7 40/26/7
f 18/28/3 16/121/3 13/29/3
f 20/31/4 11/122/4 12/32/4
f 20/34/1 35/123/1 37/35/1
f 23/37/5 25/124/5 29/38/5
f 29/42/4 25/125/4 21/40/4
f 25/125/4 24/126/4 21/40/4
f 25/45/1 23/127/1 20/43/1
f 23/127/1 22/128/1 20/43/1
f 23/48/2 27/129/2 19/46/2
f 27/129/2 26/130/2 19/46/2
f 27/51/3 29/131/3 18/49/3
f 29/131/3 28/132/3 18/49/3
f 30/52/7 33/133/7 49/53/7
f 2/55/4 30/134/4 31/56/4
f 8/58/2 32/135/2 33/59/2
f 1/61/3 31/136/3 32/62/3
f 37/64/7 35/137/7 51/65/7
f 24/67/4 37/138/4 36/68/4
f 21/70/3 36/139/3 34/71/3
f 17/73/2 34/140/2 35/74/2
f 13/76/8 16/141/8 38/77/8
f 16/79/6 15/142/6 41/80/6
f 14/82/9 13/143/9 39/83/9
f 11/85/7 9/144/7 43/86/7
f 10/88/8 12/145/8 45/89/8
f 9/91/9 10/146/9 42/92/9
f 31/94/6 30/147/6 46/95/6
f 33/97/9 32/148/9 48/98/9
f 32/100/8 31/149/8 47/101/8
f 34/103/8 36/150/8 52/104/8
f 36/106/6 37/151/6 53/107/6
f 35/109/9 34/152/9 50/110/9
l 4 5
l 5 6
l 6 7
l 4 7
