# Blender v3.0.1 OBJ File: ''
# www.blender.org
o Cube
v -1.000000 1.000000 1.000000
v -1.000000 -1.000000 1.000000
v -1.000000 1.000000 -1.000000
v -1.000000 -1.000000 -1.000000
v 1.000000 1.000000 1.000000
v 1.000000 -1.000000 1.000000
v 1.000000 1.000000 -1.000000
v 1.000000 -1.000000 -1.000000
v 0.000000 1.500000 0.000000
v 0.000000 1.500000 0.000000
v 0.000000 1.500000 0.000000
v 0.000000 1.500000 0.000000
v 0.000000 0.000000 -1.500000
v 0.000000 0.000000 -1.500000
v 0.000000 0.000000 -1.500000
v 0.000000 0.000000 -1.500000
v -1.500000 0.000000 0.000000
v -1.500000 0.000000 0.000000
v -1.500000 0.000000 0.000000
v -1.500000 0.000000 0.000000
v 0.000000 0.000000 1.500000
v 0.000000 0.000000 1.500000
v 0.000000 0.000000 1.500000
v 0.000000 0.000000 1.500000
v 1.500000 0.000000 0.000000
v 1.500000 0.000000 0.000000
v 1.500000 0.000000 0.000000
v 1.500000 0.000000 0.000000
v 0.000000 -1.500000 0.000000
v 0.000000 -1.500000 0.000000
v 0.000000 -1.500000 0.000000
v 0.000000 -1.500000 0.000000
vt 0.191001 0.794183
vt 0.314781 0.696638
vt 0.312856 0.698530
vt 0.343503 0.580717
vt 0.499575 0.600604
vt 0.496876 0.600581
vt 0.530397 0.761596
vt 0.647450 0.656466
vt 0.645669 0.658494
vt 0.865126 0.506363
vt 0.982180 0.401233
vt 0.980398 0.403261
vt 0.832660 0.281976
vt 0.675552 0.273544
vt 0.678246 0.273371
vt 0.036681 0.741767
vt 0.161103 0.645470
vt 0.159177 0.647362
vt 0.332120 0.173153
vt 0.215066 0.278283
vt 0.216848 0.276256
vt 0.193110 0.498634
vt 0.317532 0.402337
vt 0.315607 0.404229
vt 0.322810 0.453177
vt 0.205757 0.558307
vt 0.207538 0.556280
vt 0.375228 0.528887
vt 0.492282 0.423757
vt 0.490500 0.425784
vt 0.480393 0.766478
vt 0.500280 0.610407
vt 0.500256 0.613106
vt 0.488636 0.190596
vt 0.371582 0.295726
vt 0.373364 0.293699
vt 0.843316 0.502154
vt 0.687244 0.482267
vt 0.689943 0.482291
vt 0.683870 0.468381
vt 0.839942 0.488268
vt 0.837243 0.488245
vt 0.685134 0.659632
vt 0.841206 0.679519
vt 0.838507 0.679495
vt 0.174617 0.208871
vt 0.057564 0.314000
vt 0.059345 0.311973
vt 0.034829 0.520279
vt 0.151883 0.415149
vt 0.150101 0.417177
vt 0.174617 0.415821
vt 0.057564 0.520951
vt 0.059345 0.518924
vt 0.650278 0.439006
vt 0.533224 0.544136
vt 0.535006 0.542108
vt 0.653925 0.203900
vt 0.536871 0.309030
vt 0.538653 0.307002
vt 0.531811 0.524284
vt 0.648864 0.419154
vt 0.647083 0.421182
vt 0.987748 0.426755
vt 0.870694 0.531884
vt 0.872476 0.529857
vt 0.978151 0.181007
vt 0.861098 0.286137
vt 0.862880 0.284110
vt 0.869118 0.747563
vt 0.986172 0.642433
vt 0.984390 0.644460
vt 0.205425 0.587282
vt 0.499575 0.445951
vt 0.530397 0.555391
vt 0.865126 0.300158
vt 0.686851 0.427785
vt 0.051746 0.536114
vt 0.332120 0.379358
vt 0.208175 0.292981
vt 0.322810 0.659382
vt 0.375228 0.322682
vt 0.345626 0.610407
vt 0.488636 0.396801
vt 0.687244 0.636921
vt 0.839942 0.333615
vt 0.841206 0.524865
vt 0.174617 0.415075
vt 0.034829 0.314075
vt 0.174617 0.622026
vt 0.650278 0.645211
vt 0.653925 0.410105
vt 0.531811 0.318079
vt 0.987748 0.632959
vt 0.978151 0.387212
vt 0.869118 0.541358
vn 0.0000 0.0000 1.0000
vn 0.4472 0.8944 0.0000
vn 0.4472 0.0000 -0.8944
vn 0.8944 -0.4472 0.0000
vn 0.4472 -0.8944 0.0000
vn -0.8944 -0.4472 0.0000
vn 0.4472 0.0000 0.8944
vn -0.4472 0.8944 0.0000
vn 0.0000 0.8944 0.4472
vn 0.0000 0.8944 -0.4472
vn 0.0000 -0.4472 -0.8944
vn 0.0000 0.4472 -0.8944
vn -0.4472 0.0000 -0.8944
vn -0.8944 0.4472 0.0000
vn -0.8944 0.0000 -0.4472
vn -0.8944 0.0000 0.4472
vn 0.0000 -0.4472 0.8944
vn 0.0000 0.4472 0.8944
vn -0.4472 0.0000 0.8944
vn 0.8944 0.4472 0.0000
vn 0.8944 0.0000 0.4472
vn 0.8944 0.0000 -0.4472
vn -0.4472 -0.8944 0.0000
vn 0.0000 -0.8944 0.4472
vn 0.0000 -0.8944 -0.4472
s off
f 5/1/1 10/2/1 12/3/1
f 7/4/1 13/5/1 14/6/1
f 6/7/1 26/8/1 25/9/1
f 8/10/1 29/11/1 30/12/1
f 4/13/1 18/14/1 20/15/1
f 6/16/1 24/17/1 22/18/1
f 3/19/1 11/20/1 9/21/1
f 1/22/1 12/23/1 11/24/1
f 7/25/1 9/26/1 10/27/1
f 8/28/1 16/29/1 13/30/1
f 3/31/1 14/32/1 15/33/1
f 4/34/1 15/35/1 16/36/1
f 1/37/1 19/38/1 17/39/1
f 3/40/1 20/41/1 19/42/1
f 2/43/1 17/44/1 18/45/1
f 2/46/1 22/47/1 21/48/1
f 5/49/1 23/50/1 24/51/1
f 1/52/1 21/53/1 23/54/1
f 7/55/1 28/56/1 27/57/1
f 5/58/1 25/59/1 28/60/1
f 8/61/1 27/62/1 26/63/1
f 2/64/1 32/65/1 31/66/1
f 6/67/1 31/68/1 29/69/1
f 4/70/1 30/71/1 32/72/1
f 5/1/2 7/73/2 10/2/2
f 7/4/3 8/74/3 13/5/3
f 6/7/4 8/75/4 26/8/4
f 8/10/5 6/76/5 29/11/5
f 4/13/6 2/77/6 18/14/6
f 6/16/7 5/78/7 24/17/7
f 3/19/8 1/79/8 11/20/8
f 1/22/9 5/80/9 12/23/9
f 7/25/10 3/81/10 9/26/10
f 8/28/11 4/82/11 16/29/11
f 3/31/12 7/83/12 14/32/12
f 4/34/13 3/84/13 15/35/13
f 1/37/14 3/85/14 19/38/14
f 3/40/15 4/86/15 20/41/15
f 2/43/16 1/87/16 17/44/16
f 2/46/17 6/88/17 22/47/17
f 5/49/18 1/89/18 23/50/18
f 1/52/19 2/90/19 21/53/19
f 7/55/20 5/91/20 28/56/20
f 5/58/21 6/92/21 25/59/21
f 8/61/22 7/93/22 27/62/22
f 2/64/23 4/94/23 32/65/23
f 6/67/24 2/95/24 31/68/24
f 4/70/25 8/96/25 30/71/25
